<svg width="64" height="64" viewBox="0 0 64 64" fill="none" xmlns="http://www.w3.org/2000/svg">
<circle cx="32" cy="32" r="32" fill="black"/>
<path d="M36.0776 20.4424L30.2769 44H22.752L20.4961 33.7358C20.4531 33.5425 20.3833 33.2148 20.2866 32.7529C20.2007 32.291 20.0986 31.7646 19.9805 31.1738C19.873 30.583 19.771 30.0029 19.6743 29.4336C19.5884 28.8535 19.5239 28.3647 19.481 27.9673C19.438 28.3647 19.3682 28.8535 19.2715 29.4336C19.1748 30.0029 19.0674 30.583 18.9492 31.1738C18.8418 31.7646 18.7344 32.291 18.627 32.7529C18.5303 33.2148 18.4604 33.5425 18.4175 33.7358L16.1455 44H8.62061L2.7876 20.4424H8.92676L11.4888 32.2534C11.5532 32.5435 11.6392 32.957 11.7466 33.4941C11.8647 34.0205 11.9829 34.6006 12.1011 35.2344C12.23 35.8574 12.3481 36.459 12.4556 37.0391C12.563 37.6191 12.6382 38.1025 12.6812 38.4893C12.7671 37.8232 12.8799 37.0659 13.0195 36.2173C13.1699 35.3687 13.3311 34.5093 13.5029 33.6392C13.6855 32.7583 13.8574 31.9419 14.0186 31.1899C14.1797 30.438 14.3193 29.8257 14.4375 29.353L16.5161 20.4424H22.4136L24.4277 29.353C24.5352 29.8149 24.6694 30.4272 24.8306 31.1899C25.0024 31.9419 25.1743 32.7583 25.3462 33.6392C25.5288 34.52 25.6953 35.3901 25.8457 36.2495C25.9961 37.0981 26.1089 37.8447 26.1841 38.4893C26.2485 37.9521 26.356 37.2754 26.5063 36.459C26.6567 35.6318 26.8071 34.8315 26.9575 34.0581C27.1187 33.2739 27.2422 32.6831 27.3281 32.2856L29.9385 20.4424H36.0776ZM37.27 51.396C36.5503 51.396 35.9219 51.3584 35.3848 51.2832C34.8369 51.2188 34.3643 51.1436 33.9668 51.0576V46.1108C34.3105 46.1753 34.6758 46.2451 35.0625 46.3203C35.4492 46.4062 35.8682 46.4492 36.3193 46.4492C37.082 46.4492 37.6729 46.2935 38.0918 45.9819C38.5215 45.6704 38.8223 45.2031 38.9941 44.5801C39.166 43.957 39.252 43.1782 39.252 42.2437V20.4424H45.6489V41.6958C45.6489 44.0591 45.2944 45.9497 44.5854 47.3677C43.8765 48.7856 42.8936 49.8115 41.6367 50.4453C40.3799 51.0791 38.9243 51.396 37.27 51.396ZM61.4077 25.4214C61.7515 25.4214 62.1113 25.4482 62.4873 25.502C62.8633 25.5449 63.1426 25.5825 63.3252 25.6147L62.7612 31.5605C62.5571 31.5068 62.2939 31.4639 61.9717 31.4316C61.6494 31.3887 61.1982 31.3672 60.6182 31.3672C60.2207 31.3672 59.7964 31.4048 59.3452 31.48C58.894 31.5552 58.4644 31.7163 58.0562 31.9634C57.6587 32.1997 57.3311 32.5649 57.0732 33.0591C56.8154 33.5425 56.6865 34.1978 56.6865 35.0249V44H50.3862V25.7437H55.0752L56.0581 28.6602H56.3643C56.6973 28.0586 57.1216 27.5161 57.6372 27.0327C58.1636 26.5386 58.749 26.1465 59.3936 25.8564C60.0488 25.5664 60.7202 25.4214 61.4077 25.4214Z" fill="white"/>
</svg>
